<?xml version="1.0" encoding="utf-8"?>
<!-- Generator: Adobe Illustrator 27.0.0, SVG Export Plug-In . SVG Version: 6.00 Build 0)  -->
<svg version="1.1" id="Layer_1" xmlns="http://www.w3.org/2000/svg" xmlns:xlink="http://www.w3.org/1999/xlink" x="0px" y="0px"
	 viewBox="0 0 30 40" style="enable-background:new 0 0 30 40;" xml:space="preserve">
<style type="text/css">
	.st0{fill:#231916;}
</style>
<g id="_圖層_1_00000002345512917335577170000005968725525080969882_">
	<path class="st0" d="M30,19.4L30,19.4c0-0.1-0.1-0.1-0.1-0.1l-4.8-9.6l3.1-1.8c0.1,0,0.1-0.1,0.2-0.2V7.6V6.9V6.8
		c0-0.1-0.1-0.2-0.2-0.2l-6.5-2.3h-0.1l0,0l0,0c-0.1,0-0.2,0-0.2,0.1l-4.9,4.1H9.2C9.1,8.4,9,8.5,8.9,8.6L0.1,21.9
		C0,22,0,22.2,0,22.3l4.2,10.5c0,0,0,0.1,0.1,0.1C4.3,33,4.4,33,4.5,33l6.7,2.7h0.1c0.1,0,0.2-0.1,0.3-0.1l3-2.6h6.8h0.1
		c0.1,0,0.2-0.1,0.3-0.2L30,19.6C30,19.6,30,19.5,30,19.4L30,19.4z M12.5,33.1l-1.3,1.1l-0.9-1.1H12.5z M23.6,10.5l4,8L5.7,20.7
		L23.6,10.5z M23,6.3l2.7,1l-1.7,1L23,6.3L23,6.3z M19.1,8.4l2.4-2l1,2H19.1L19.1,8.4z M8.7,17.1l8.4-7h4L8.7,17.1L8.7,17.1z
		 M4.3,18.6l5.6-8.5h4.5L4.3,18.6L4.3,18.6z M8.4,33.1L9.1,34l-2.3-0.9H8.4L8.4,33.1z M15.3,30.2l-1.4,1.2H9.5l-5.3-6.7L15.3,30.2
		L15.3,30.2z M3.9,22.6l22.7-2.3L16.7,29L3.9,22.6z M7.4,31.4h-2l-2-5L7.4,31.4z M18.5,31.4h-2.3l0.8-0.7L18.5,31.4L18.5,31.4z
		 M25.8,23.3L21,31.1l-2.6-1.3L25.8,23.3z"/>
</g>
</svg>
